<svg width="156" height="47" viewBox="0 0 156 47" fill="none" xmlns="http://www.w3.org/2000/svg">
<g clip-path="url(#clip0_4705_27629)">
<g clip-path="url(#clip1_4705_27629)">
<path d="M149.906 46.765H5.78533C2.61468 46.765 0.0205078 44.1345 0.0205078 40.9194V5.84561C0.0205078 2.63052 2.61468 -1.52588e-05 5.78533 -1.52588e-05H149.906C153.077 -1.52588e-05 155.671 2.63052 155.671 5.84561V40.9194C155.671 44.1345 153.077 46.765 149.906 46.765Z" fill="#100F0D"/>
<path d="M149.906 -1.52588e-05H5.78533C2.61468 -1.52588e-05 0.0205078 2.63052 0.0205078 5.84561V40.9194C0.0205078 44.1345 2.61468 46.765 5.78533 46.765H149.906C153.077 46.765 155.671 44.1345 155.671 40.9194V5.84561C155.671 2.63052 153.077 -1.52588e-05 149.906 -1.52588e-05ZM149.906 0.934818C152.576 0.934818 154.748 3.13792 154.748 5.84561V40.9194C154.748 43.6271 152.576 45.8301 149.906 45.8301H5.78533C3.11504 45.8301 0.94333 43.6271 0.94333 40.9194V5.84561C0.94333 3.13792 3.11504 0.934818 5.78533 0.934818H149.906Z" fill="#A2A2A1"/>
<path d="M23.9069 22.7093L11.6318 35.9204C11.6323 35.9232 11.6332 35.9255 11.6337 35.9282C12.0101 37.3626 13.3023 38.419 14.8358 38.419C15.4488 38.419 16.0244 38.2509 16.518 37.9559L16.5572 37.9326L30.3743 29.8479L23.9069 22.7093Z" fill="#EB3131"/>
<path d="M36.3254 20.4597L36.3137 20.4515L30.3484 16.9449L23.6279 23.009L30.3718 29.8465L36.3056 26.3747C37.3459 25.8053 38.0521 24.6932 38.0521 23.4108C38.0521 22.1376 37.3554 21.031 36.3254 20.4597Z" fill="#F6B60B"/>
<path d="M11.6311 10.8463C11.5573 11.1222 11.5186 11.4112 11.5186 11.7113V35.056C11.5186 35.3555 11.5569 35.6455 11.6316 35.9204L24.3291 23.0473L11.6311 10.8463Z" fill="#5778C5"/>
<path d="M23.9969 23.3834L30.3504 16.9427L16.5489 8.82872C16.0473 8.52405 15.4618 8.34821 14.8353 8.34821C13.3017 8.34821 12.0079 9.40639 11.6313 10.8427C11.6309 10.8441 11.6309 10.845 11.6309 10.8463L23.9969 23.3834Z" fill="#3BAD49"/>
</g>
<path d="M54.7885 12.093C54.7885 13.0725 54.5024 13.8526 53.9295 14.4344C53.2787 15.1263 52.4306 15.4725 51.3879 15.4725C50.3894 15.4725 49.5405 15.1218 48.8424 14.4194C48.143 13.7174 47.7939 12.847 47.7939 11.8084C47.7939 10.7694 48.143 9.89941 48.8424 9.19698C49.5405 8.49502 50.3894 8.14381 51.3879 8.14381C51.8834 8.14381 52.3577 8.24201 52.8081 8.43796C53.2584 8.63438 53.6197 8.8951 53.8899 9.22165L53.2818 9.83861C52.8239 9.28373 52.1933 9.00652 51.3879 9.00652C50.6597 9.00652 50.0301 9.26596 49.4986 9.78518C48.9671 10.305 48.7015 10.979 48.7015 11.8084C48.7015 12.6378 48.9671 13.3118 49.4986 13.8316C50.0301 14.3508 50.6597 14.6103 51.3879 14.6103C52.1604 14.6103 52.8045 14.3494 53.3201 13.8271C53.6548 13.4867 53.8484 13.0137 53.9002 12.4062H51.3879V11.5636H54.7403C54.7727 11.7468 54.7885 11.9226 54.7885 12.093Z" fill="white"/>
<path d="M54.7885 12.0931H54.6732C54.6723 13.0503 54.3966 13.7937 53.848 14.3519L53.8468 14.3528L53.8463 14.3538C53.2162 15.0218 52.4063 15.3543 51.388 15.3557C50.4161 15.3543 49.6027 15.0182 48.9235 14.3368C48.2458 13.654 47.9106 12.8205 47.9093 11.8085C47.9106 10.796 48.2458 9.96301 48.9235 9.28069C49.6027 8.59884 50.4161 8.26225 51.388 8.26084C51.8686 8.26084 52.3262 8.35589 52.7626 8.54541C53.1995 8.73634 53.5446 8.98653 53.8017 9.29718L53.89 9.22177L53.8085 9.13911L53.2004 9.75654L53.2819 9.83873L53.3707 9.76391C52.8914 9.18155 52.2186 8.88798 51.388 8.88973C50.6328 8.8888 49.9684 9.16238 49.4189 9.70136C48.8641 10.2421 48.5853 10.954 48.5862 11.8085C48.5853 12.6631 48.8641 13.375 49.4189 13.9157C49.9684 14.4547 50.6328 14.7283 51.388 14.7273C52.1861 14.7287 52.8663 14.4542 53.4017 13.9098C53.7594 13.5462 53.9621 13.0426 54.0152 12.4164L54.0259 12.2894H51.5033V11.6806H54.7403V11.5637L54.6268 11.5843C54.6584 11.7615 54.6732 11.93 54.6732 12.0931H54.7885H54.9038C54.9038 11.9154 54.8876 11.7328 54.8538 11.5428L54.8367 11.4468H51.2727V12.4063V12.5232H53.9003V12.4063L53.7854 12.3963C53.7346 12.9846 53.5499 13.4276 53.2387 13.7445C52.7432 14.245 52.1353 14.4921 51.388 14.4935C50.6868 14.4926 50.0918 14.2477 49.5788 13.7477C49.0708 13.2494 48.8181 12.6133 48.8168 11.8085C48.8181 11.0038 49.0708 10.3677 49.5788 9.86936C50.0918 9.36932 50.6868 9.1245 51.388 9.12356C52.1677 9.12543 52.7564 9.38662 53.1937 9.91414L53.2748 10.0119L53.9715 9.30443L54.0462 9.22867L53.9782 9.14683C53.6949 8.80438 53.3175 8.53255 52.8536 8.33076C52.3888 8.12838 51.8983 8.02701 51.388 8.02701C50.363 8.02608 49.4784 8.39144 48.7609 9.11444C48.0408 9.83604 47.6778 10.7431 47.6787 11.8085C47.6778 12.8735 48.0407 13.781 48.7614 14.5031C49.4784 15.2256 50.363 15.5905 51.388 15.5896C52.4554 15.5905 53.3409 15.231 54.0129 14.5153L53.9296 14.4346L54.0111 14.5172C54.6083 13.9121 54.9046 13.0946 54.9038 12.0931H54.7885Z" fill="white"/>
<path d="M60.103 9.16284H56.9526V11.387H59.7937V12.23H56.9526V14.4542H60.103V15.316H56.0645V8.30105H60.103V9.16284Z" fill="white"/>
<path d="M60.1031 9.1628V9.04589H56.8374V11.5039H59.6785V12.1127L56.8374 12.113V14.5711H59.9878V15.199H56.1798V8.41794H59.9878V9.1628H60.1031V9.04589V9.1628H60.2184V8.30102V8.1841H55.9492V15.4329H60.2184V14.4542V14.3372H57.068V12.3469H59.9091V11.387V11.2701H57.068V9.27972H60.2184V9.1628H60.1031Z" fill="white"/>
<path d="M63.852 15.316H62.9625V9.16284H61.0303V8.30105H65.7842V9.16284H63.852V15.316Z" fill="white"/>
<path d="M63.8521 15.3159V15.199H63.0778V9.04589H61.1456V8.41794H65.6689V9.04589H63.7368V15.3159H63.8521V15.199V15.3159H63.9674V9.27972H65.8995V8.30102V8.1841H60.915V9.1628V9.27972H62.8472V15.4329H63.8521H63.9674V15.3159H63.8521Z" fill="white"/>
<path d="M69.2236 15.316V8.30105H70.1122V15.316H69.2236Z" fill="white"/>
<path d="M69.2237 15.3159H69.339V8.41794H69.997V15.199H69.2237V15.3159H69.339H69.2237V15.4329H70.1123H70.2276V8.1841H69.2237H69.1084V15.4329H69.2237V15.3159Z" fill="white"/>
<path d="M74.055 15.316H73.1655V9.16284H71.2334V8.30105H75.9872V9.16284H74.055V15.316Z" fill="white"/>
<path d="M74.0551 15.3159V15.199H73.2808V9.04589H71.3488V8.41794H75.8719V9.04589H73.9398V15.3159H74.0551V15.199V15.3159H74.1704V9.27972H76.1025V8.30102V8.1841H71.1182V9.1628V9.27972H73.0502V15.4329H74.0551H74.1704V15.3159H74.0551Z" fill="white"/>
<path d="M80.5709 13.822C81.083 14.3477 81.7095 14.6103 82.4504 14.6103C83.1913 14.6103 83.8182 14.3477 84.3294 13.822C84.8419 13.2964 85.0987 12.6245 85.0987 11.8084C85.0987 10.9923 84.8419 10.3204 84.3294 9.79477C83.8182 9.26912 83.1913 9.00652 82.4504 9.00652C81.7095 9.00652 81.083 9.26912 80.5709 9.79477C80.0597 10.3204 79.803 10.9923 79.803 11.8084C79.803 12.6245 80.0597 13.2964 80.5709 13.822ZM84.987 14.4093C84.3068 15.1185 83.461 15.4725 82.4504 15.4725C81.4388 15.4725 80.5934 15.1185 79.9147 14.4093C79.2341 13.7009 78.8955 12.8338 78.8955 11.8084C78.8955 10.7831 79.2341 9.91578 79.9147 9.2075C80.5934 8.49818 81.4388 8.14381 82.4504 8.14381C83.4557 8.14381 84.2992 8.50005 84.9825 9.21206C85.6648 9.92408 86.0062 10.7895 86.0062 11.8084C86.0062 12.8338 85.6656 13.7009 84.987 14.4093Z" fill="white"/>
<path d="M80.571 13.8222L80.489 13.9043C81.0201 14.451 81.6826 14.7287 82.4505 14.7273C83.2179 14.7287 83.8813 14.451 84.4115 13.9043C84.946 13.3572 85.2149 12.6493 85.2141 11.8085C85.2149 10.9678 84.946 10.2599 84.4115 9.7127C83.8813 9.166 83.2179 8.88833 82.4505 8.88973C81.6826 8.88833 81.0201 9.166 80.489 9.7127C79.9557 10.2599 79.6864 10.9678 79.6878 11.8085C79.6864 12.6493 79.9557 13.3572 80.489 13.9043L80.571 13.8222L80.653 13.74C80.1639 13.2352 79.9193 12.6004 79.9184 11.8085C79.9193 11.0167 80.1639 10.3818 80.653 9.87708C81.1466 9.37247 81.7361 9.12496 82.4505 9.12356C83.1643 9.12496 83.7552 9.37247 84.2475 9.87708C84.7376 10.3818 84.9821 11.0167 84.983 11.8085C84.9821 12.6004 84.7376 13.2352 84.2475 13.74C83.7552 14.2446 83.1643 14.4921 82.4505 14.4935C81.7361 14.4921 81.1466 14.2446 80.653 13.74L80.571 13.8222ZM84.9871 14.4094L84.9046 14.3282C84.2435 15.015 83.435 15.3543 82.4505 15.3557C81.4655 15.3543 80.657 15.015 79.9971 14.3282L79.994 14.3245L79.9971 14.3282C79.3374 13.6389 79.0118 12.8078 79.0109 11.8085C79.0118 10.8092 79.3374 9.9781 79.9971 9.28888C80.657 8.602 81.4655 8.26224 82.4505 8.26084C83.4287 8.26224 84.2353 8.6034 84.9001 9.29391C85.5622 9.98628 85.8896 10.8161 85.891 11.8085C85.8896 12.8078 85.5631 13.6389 84.9046 14.3282L84.9871 14.4094L85.07 14.4907C85.7689 13.7628 86.1224 12.8598 86.1216 11.8085C86.1224 10.7632 85.7675 9.86211 85.0654 9.13092C84.3628 8.39693 83.4828 8.02572 82.4505 8.02701C81.4128 8.02572 80.5301 8.39518 79.8319 9.12636V9.1259C79.1316 9.85428 78.7794 10.7572 78.7803 11.8085C78.7794 12.8598 79.1316 13.7628 79.8319 14.4911L79.835 14.4944L79.8319 14.4907C80.5301 15.2219 81.4128 15.5905 82.4505 15.5896C83.4877 15.5905 84.3704 15.2219 85.07 14.4907L84.9871 14.4094Z" fill="white"/>
<path d="M87.2539 15.316V8.30105H88.3358L91.6979 13.7582H91.7362L91.6979 12.4063V8.30105H92.5874V15.316H91.6596L88.1421 9.59437H88.1038L88.1421 10.9467V15.316H87.2539Z" fill="white"/>
<path d="M87.254 15.3159H87.3693V8.41794H88.2718L91.634 13.8751H91.7362H91.8546L91.8133 12.4045V8.41794H92.4722V15.199H91.7237L88.2061 9.47742H88.1038H87.9854L88.0268 10.9486V15.199H87.254V15.3159H87.3693H87.254V15.4329H88.1421H88.2574V10.9448L88.2191 9.59118L88.1038 9.59434V9.71126H88.1421V9.59434L88.0443 9.65654L91.5957 15.4329H92.5875H92.7028V8.1841H91.698H91.5827V12.4077L91.6209 13.7613L91.7362 13.7582V13.6412H91.698V13.7582L91.7957 13.6961L88.3997 8.1841H87.254H87.1387V15.4329H87.254V15.3159Z" fill="white"/>
<path d="M123.412 35.1916H125.564V20.5757H123.412V35.1916ZM142.79 25.8407L140.324 32.1774H140.25L137.691 25.8407H135.373L139.212 34.6974L137.023 39.6238H139.268L145.183 25.8407H142.79ZM130.59 33.5315C129.884 33.5315 128.902 33.1743 128.902 32.2902C128.902 31.1621 130.126 30.7296 131.182 30.7296C132.129 30.7296 132.573 30.9364 133.148 31.2188C132.981 32.5724 131.831 33.5315 130.59 33.5315ZM130.849 25.5209C129.291 25.5209 127.678 26.2169 127.011 27.7588L128.92 28.5671C129.328 27.7588 130.088 27.4953 130.886 27.4953C131.998 27.4953 133.13 28.1726 133.148 29.376V29.5262C132.758 29.3006 131.925 28.9622 130.904 28.9622C128.846 28.9622 126.75 30.1089 126.75 32.2527C126.75 34.2083 128.438 35.4683 130.329 35.4683C131.776 35.4683 132.573 34.8102 133.074 34.0394H133.148V35.1674H135.225V29.5636C135.225 26.9691 133.315 25.5209 130.849 25.5209ZM117.553 27.6199H114.493V22.6099H117.553C119.161 22.6099 120.074 23.9603 120.074 25.1149C120.074 26.2475 119.161 27.6199 117.553 27.6199ZM117.497 20.5757H112.342V35.1916H114.493V29.6541H117.497C119.882 29.6541 122.226 27.9035 122.226 25.1149C122.226 22.3263 119.882 20.5757 117.497 20.5757ZM89.3861 33.5342C87.8998 33.5342 86.6554 32.2723 86.6554 30.5392C86.6554 28.7878 87.8998 27.5067 89.3861 27.5067C90.8535 27.5067 92.0051 28.7878 92.0051 30.5392C92.0051 32.2723 90.8535 33.5342 89.3861 33.5342ZM91.8565 26.6591H91.7822C91.2994 26.0753 90.3702 25.5479 89.2001 25.5479C86.7482 25.5479 84.5008 27.7327 84.5008 30.5392C84.5008 33.3269 86.7482 35.493 89.2001 35.493C90.3702 35.493 91.2994 34.9655 91.7822 34.3631H91.8565V35.0787C91.8565 36.9814 90.8535 37.9985 89.2375 37.9985C87.9187 37.9985 87.1014 37.0375 86.7666 36.2278L84.8908 37.0188C85.4295 38.3373 86.8599 39.9573 89.2375 39.9573C91.7637 39.9573 93.8999 38.4501 93.8999 34.7773V25.8493H91.8565V26.6591ZM95.3857 35.1916H97.5404V20.5753H95.3857V35.1916ZM100.717 30.3697C100.661 28.4484 102.184 27.4692 103.28 27.4692C104.135 27.4692 104.859 27.9021 105.1 28.5242L100.717 30.3697ZM107.404 28.7124C106.996 27.6007 105.751 25.5479 103.206 25.5479C100.68 25.5479 98.5808 27.5633 98.5808 30.5204C98.5808 33.3082 100.661 35.493 103.447 35.493C105.695 35.493 106.996 34.0991 107.534 33.2894L105.862 32.159C105.306 32.9879 104.543 33.5342 103.447 33.5342C102.351 33.5342 101.571 33.0255 101.07 32.0275L107.626 29.2773L107.404 28.7124ZM55.1639 27.0737V29.1832H60.1419C59.9933 30.3697 59.6033 31.2361 59.0088 31.8389C58.2846 32.5737 57.1514 33.3835 55.1639 33.3835C52.0989 33.3835 49.7028 30.8784 49.7028 27.7706C49.7028 24.6628 52.0989 22.1574 55.1639 22.1574C56.8172 22.1574 58.0242 22.8168 58.916 23.6644L60.3834 22.1765C59.1389 20.9708 57.4856 20.0479 55.1639 20.0479C50.9657 20.0479 47.4365 23.5137 47.4365 27.7706C47.4365 32.0275 50.9657 35.493 55.1639 35.493C57.4302 35.493 59.139 34.7399 60.4762 33.3269C61.8508 31.933 62.2782 29.9742 62.2782 28.3922C62.2782 27.9021 62.2412 27.4505 62.1665 27.0737H55.1639ZM67.9378 33.5342C66.4515 33.5342 65.1697 32.291 65.1697 30.5204C65.1697 28.7311 66.4515 27.5067 67.9378 27.5067C69.4235 27.5067 70.7053 28.7311 70.7053 30.5204C70.7053 32.291 69.4235 33.5342 67.9378 33.5342ZM67.9378 25.5479C65.2255 25.5479 63.015 27.6386 63.015 30.5204C63.015 33.3835 65.2255 35.493 67.9378 35.493C70.6495 35.493 72.86 33.3835 72.86 30.5204C72.86 27.6386 70.6495 25.5479 67.9378 25.5479ZM78.6758 33.5342C77.1901 33.5342 75.9082 32.291 75.9082 30.5204C75.9082 28.7311 77.1901 27.5067 78.6758 27.5067C80.1617 27.5067 81.4435 28.7311 81.4435 30.5204C81.4435 32.291 80.1617 33.5342 78.6758 33.5342ZM78.6758 25.5479C75.9637 25.5479 73.7536 27.6386 73.7536 30.5204C73.7536 33.3835 75.9637 35.493 78.6758 35.493C81.3877 35.493 83.5982 33.3835 83.5982 30.5204C83.5982 27.6386 81.3877 25.5479 78.6758 25.5479Z" fill="white"/>
</g>
<defs>
<clipPath id="clip0_4705_27629">
<rect width="156" height="47" fill="white"/>
</clipPath>
<clipPath id="clip1_4705_27629">
<rect width="156" height="47" fill="white" transform="translate(0.0205078)"/>
</clipPath>
</defs>
</svg>
