<svg xmlns="http://www.w3.org/2000/svg" width="157" height="36" viewBox="0 0 157 36" fill="none">
    <path
        d="M32.3809 11.0219H25.9054V2.79443L0 8.6396V26.3929H6.4755V13.8364L19.4282 10.8058V26.1768H25.9037V17.5171H32.3792C35.8337 17.5171 38.8547 20.3316 38.8547 24.0123V26.3946H45.3319V24.0123C45.3319 16.8671 39.5041 11.0219 32.3792 11.0219H32.3809Z"
        fill="#00B2FF" />
    <path
        d="M75.6518 3.55908V26.5683H71.0402V14.488L64.8818 26.5683H61.3902L55.1981 14.488V26.5683H50.5898V3.55908H55.8256L63.1377 18.8642L70.4498 3.55908H75.6535H75.6518Z"
        fill="white" />
    <path
        d="M80.1146 12.4598C80.85 11.0315 81.8486 9.93234 83.112 9.16244C84.3737 8.39423 85.7855 8.00928 87.3441 8.00928C88.7053 8.00928 89.8962 8.28448 90.9167 8.8332C91.9372 9.38362 92.7552 10.0759 93.3709 10.9099V8.30643H98.0146V26.5696H93.3709V23.9003C92.7789 24.758 91.9608 25.4654 90.9167 26.026C89.8742 26.5865 88.6716 26.8668 87.3103 26.8668C85.7737 26.8668 84.3737 26.4717 83.1103 25.6798C81.8469 24.888 80.8483 23.7737 80.1129 22.3335C79.3775 20.895 79.0098 19.2404 79.0098 17.3713C79.0098 15.5023 79.3775 13.8882 80.1129 12.4598H80.1146ZM92.7114 14.5534C92.2711 13.7515 91.6791 13.1352 90.9335 12.708C90.1863 12.2792 89.3851 12.0648 88.5299 12.0648C87.6747 12.0648 86.8836 12.2741 86.1583 12.6911C85.433 13.1082 84.846 13.7194 84.3956 14.5214C83.9452 15.3233 83.7209 16.2739 83.7209 17.373C83.7209 18.4722 83.9452 19.4328 84.3956 20.2585C84.846 21.0824 85.438 21.7138 86.1735 22.1545C86.9089 22.5935 87.6932 22.813 88.5282 22.813C89.3631 22.813 90.1863 22.5986 90.9318 22.1697C91.6774 21.7409 92.2711 21.1263 92.7097 20.3243C93.1483 19.5223 93.3675 18.56 93.3675 17.4389C93.3675 16.3178 93.1483 15.3571 92.7097 14.5551L92.7114 14.5534Z"
        fill="white" />
    <path
        d="M107.894 12.0971V20.9324C107.894 21.5487 108.043 21.9927 108.339 22.2679C108.636 22.5431 109.136 22.6799 109.837 22.6799H111.978V26.5699H109.08C105.194 26.5699 103.25 24.6806 103.25 20.9003V12.0988H101.076V8.3084H103.25V3.79199H107.894V8.3084H111.978V12.0988H107.894V12.0971Z"
        fill="white" />
    <path
        d="M119.915 29.5703C119.915 31.5913 119.415 33.0484 118.417 33.9382C117.416 34.8279 115.984 35.2737 114.119 35.2737H112.076V31.3499H113.394C114.097 31.3499 114.589 31.2131 114.876 30.9379C115.161 30.6627 115.305 30.217 115.305 29.6024V8.30689H119.915V29.5703ZM115.585 5.3573C115.047 4.84065 114.778 4.19907 114.778 3.42917C114.778 2.65927 115.047 2.01768 115.585 1.50104C116.123 0.984396 116.808 0.726074 117.643 0.726074C118.477 0.726074 119.125 0.984396 119.651 1.50104C120.178 2.01768 120.441 2.66095 120.441 3.42917C120.441 4.19738 120.178 4.84234 119.651 5.3573C119.123 5.87394 118.454 6.13226 117.643 6.13226C116.831 6.13226 116.123 5.87394 115.585 5.3573Z"
        fill="white" />
    <path
        d="M124.377 12.4598C125.113 11.0315 126.111 9.93234 127.375 9.16244C128.636 8.39423 130.048 8.00928 131.607 8.00928C132.968 8.00928 134.159 8.28448 135.179 8.8332C136.2 9.38362 137.018 10.0759 137.634 10.9099V8.30643H142.277V26.5696H137.634V23.9003C137.042 24.758 136.223 25.4654 135.179 26.026C134.137 26.5865 132.934 26.8668 131.573 26.8668C130.036 26.8668 128.636 26.4717 127.373 25.6798C126.11 24.888 125.111 23.7737 124.376 22.3335C123.64 20.895 123.272 19.2404 123.272 17.3713C123.272 15.5023 123.64 13.8882 124.376 12.4598H124.377ZM136.974 14.5534C136.536 13.7515 135.942 13.1352 135.196 12.708C134.449 12.2792 133.648 12.0648 132.793 12.0648C131.937 12.0648 131.146 12.2741 130.421 12.6911C129.696 13.1082 129.109 13.7194 128.658 14.5214C128.208 15.3233 127.984 16.2739 127.984 17.373C127.984 18.4722 128.208 19.4328 128.658 20.2585C129.109 21.0824 129.701 21.7138 130.436 22.1545C131.172 22.5935 131.956 22.813 132.791 22.813C133.626 22.813 134.449 22.5986 135.195 22.1697C135.94 21.7409 136.534 21.1263 136.972 20.3243C137.411 19.5223 137.63 18.56 137.63 17.4389C137.63 16.3178 137.411 15.3571 136.972 14.5551L136.974 14.5534Z"
        fill="white" />
    <path
        d="M153.722 8.30664C154.614 8.01455 155.77 8.04325 156.999 8.04325V12.8889H155.781C154.333 12.8889 152.69 14.5384 152.212 15.4823C151.759 16.3771 151.401 17.5252 151.401 19.2169V26.5681H146.791V8.30495H151.401V10.3597C151.993 9.39227 152.889 8.57678 153.722 8.30495V8.30664Z"
        fill="white" />
</svg>