<svg xmlns="http://www.w3.org/2000/svg" width="137" height="32" viewBox="0 0 137 32" fill="none">
    <path
        d="M28.2559 9.91104H22.6053V2.73166L0 7.83222V23.324H5.6506V12.367L16.9533 9.72246V23.1354H22.6039V15.5788H28.2545C31.2689 15.5788 33.9051 18.0348 33.9051 21.2466V23.3254H39.5571V21.2466C39.5571 15.0116 34.4717 9.91104 28.2545 9.91104H28.2559Z"
        fill="#00B2FF" />
    <path
        d="M66.0149 3.39896V23.4771H61.9907V12.9356L56.6169 23.4771H53.57L48.1667 12.9356V23.4771H44.1455V3.39896H48.7143L55.0949 16.7544L61.4756 3.39896H66.0164H66.0149Z"
        fill="#011120" />
    <path
        d="M69.9094 11.1661C70.5511 9.91971 71.4225 8.96059 72.525 8.28876C73.6259 7.61841 74.8579 7.2825 76.2179 7.2825C77.4058 7.2825 78.4449 7.52265 79.3354 8.00147C80.2259 8.48176 80.9398 9.08582 81.477 9.81363V7.5418H85.5291V23.4785H81.477V21.1492C80.9604 21.8976 80.2465 22.5149 79.3354 23.0041C78.4258 23.4932 77.3763 23.7378 76.1885 23.7378C74.8476 23.7378 73.6259 23.393 72.5235 22.702C71.421 22.0111 70.5497 21.0387 69.9079 19.782C69.2662 18.5267 68.9453 17.0829 68.9453 15.4519C68.9453 13.821 69.2662 12.4125 69.9079 11.1661H69.9094ZM80.9015 12.993C80.5173 12.2932 80.0007 11.7554 79.3501 11.3827C78.6981 11.0085 77.9989 10.8214 77.2527 10.8214C76.5064 10.8214 75.8161 11.0041 75.1832 11.368C74.5503 11.7319 74.0381 12.2652 73.6451 12.965C73.2521 13.6648 73.0563 14.4943 73.0563 15.4534C73.0563 16.4125 73.2521 17.2508 73.6451 17.9713C74.0381 18.6902 74.5547 19.2413 75.1964 19.6258C75.8382 20.0089 76.5226 20.2004 77.2512 20.2004C77.9798 20.2004 78.6981 20.0133 79.3487 19.6391C79.9992 19.2648 80.5173 18.7286 80.9 18.0287C81.2827 17.3289 81.4741 16.4891 81.4741 15.5109C81.4741 14.5326 81.2827 13.6943 80.9 12.9945L80.9015 12.993Z"
        fill="#011120" />
    <path
        d="M94.1506 10.8494V18.5592C94.1506 19.097 94.2801 19.4844 94.5391 19.7246C94.7982 19.9647 95.2339 20.0841 95.8462 20.0841H97.714V23.4785H95.1853C91.7941 23.4785 90.0984 21.8299 90.0984 18.5312V10.8509H88.2012V7.54335H90.0984V3.60228H94.1506V7.54335H97.714V10.8509H94.1506V10.8494Z"
        fill="#011120" />
    <path
        d="M104.639 26.0965C104.639 27.86 104.203 29.1315 103.332 29.9079C102.459 30.6843 101.209 31.0733 99.5813 31.0733H97.7988V27.6493H98.9484C99.5622 27.6493 99.9919 27.53 100.242 27.2898C100.491 27.0497 100.616 26.6607 100.616 26.1245V7.54175H104.639V26.0965ZM100.86 4.9679C100.391 4.51707 100.157 3.95722 100.157 3.28539C100.157 2.61357 100.391 2.05372 100.86 1.60289C101.33 1.15206 101.927 0.926643 102.656 0.926643C103.385 0.926643 103.95 1.15206 104.409 1.60289C104.868 2.05372 105.098 2.61504 105.098 3.28539C105.098 3.95574 104.868 4.51854 104.409 4.9679C103.948 5.41873 103.364 5.64414 102.656 5.64414C101.948 5.64414 101.33 5.41873 100.86 4.9679Z"
        fill="#011120" />
    <path
        d="M108.533 11.1661C109.175 9.91971 110.047 8.96059 111.149 8.28876C112.25 7.61841 113.482 7.2825 114.842 7.2825C116.03 7.2825 117.069 7.52265 117.959 8.00147C118.85 8.48176 119.564 9.08582 120.101 9.81363V7.5418H124.153V23.4785H120.101V21.1492C119.584 21.8976 118.871 22.5149 117.959 23.0041C117.05 23.4932 116 23.7378 114.813 23.7378C113.472 23.7378 112.25 23.393 111.148 22.702C110.045 22.0111 109.174 21.0387 108.532 19.782C107.89 18.5267 107.569 17.0829 107.569 15.4519C107.569 13.821 107.89 12.4125 108.532 11.1661H108.533ZM119.526 12.993C119.143 12.2932 118.625 11.7554 117.974 11.3827C117.322 11.0085 116.623 10.8214 115.877 10.8214C115.13 10.8214 114.44 11.0041 113.807 11.368C113.174 11.7319 112.662 12.2652 112.269 12.965C111.876 13.6648 111.68 14.4943 111.68 15.4534C111.68 16.4125 111.876 17.2508 112.269 17.9713C112.662 18.6902 113.179 19.2413 113.82 19.6258C114.462 20.0089 115.147 20.2004 115.875 20.2004C116.604 20.2004 117.322 20.0133 117.973 19.6391C118.623 19.2648 119.141 18.7286 119.524 18.0287C119.907 17.3289 120.098 16.4891 120.098 15.5109C120.098 14.5326 119.907 13.6943 119.524 12.9945L119.526 12.993Z"
        fill="#011120" />
    <path
        d="M134.14 7.54177C134.918 7.28689 135.927 7.31193 137 7.31193V11.5403H135.937C134.673 11.5403 133.239 12.9797 132.822 13.8033C132.427 14.5841 132.114 15.586 132.114 17.0622V23.477H128.092V7.54029H132.114V9.3333C132.631 8.4891 133.413 7.77749 134.14 7.54029V7.54177Z"
        fill="#011120" />
</svg>